<svg width="286" height="345" viewBox="0 0 286 345" fill="none" xmlns="http://www.w3.org/2000/svg">
<path d="M0.207011 76.9025C2.70502 73.1862 15.0725 67.8949 19.5887 65.3908C43.397 52.1844 67.3283 39.2011 91.3793 26.4425L120.255 10.556C145.762 -3.54212 138.251 -3.46099 163.94 10.4534L215.803 38.874C229.182 46.0978 242.82 53.0743 256.068 60.4924C260.677 63.0719 267.964 66.7667 272.151 69.5182C275.941 71.1845 282.052 73.7185 284.93 76.5143C286.072 80.6596 285.17 94.526 285.148 99.3454C285.123 105.731 285.097 112.67 285.097 119.103C285.075 126.717 285.104 134.33 285.188 141.943C285.243 146.303 285.45 155.137 285.072 159.485C285.475 169.608 284.591 182.819 285.254 191.917L285.075 193.283C285.246 196.075 285.246 197.751 285.097 200.546C284.912 205.538 284.351 214.521 285.199 219.121C285.748 222.479 285.443 240.961 285.315 245.082C285.097 252.113 285.788 265.924 285.024 272.269C279.066 275.723 269.866 279.918 263.511 283.138L226.01 302.539C222.703 304.254 219.357 306.06 216.097 307.867C205.606 313.688 194.602 318.625 184.02 324.235C175.166 329.004 166.246 333.639 157.258 338.14C154.046 339.78 145.359 345.212 142.248 344.299C136.639 342.625 129.549 338.576 124.26 335.862L94.6911 320.52L62.3316 303.871C57.5724 301.454 48.0289 297.008 43.9288 294.356C42.0409 293.905 32.6705 288.644 30.5225 287.528C20.6389 282.307 10.6483 277.291 0.557703 272.483C-0.0268745 268.102 0.28013 255.628 0.285586 250.487C0.227383 237.766 0.248489 225.044 0.347799 212.322C0.316878 207.291 0.408913 204.548 0.876357 199.555C-0.566717 197.163 0.17138 192.397 0.325618 189.442C0.541697 185.628 0.283782 180.977 0.391094 177.049C0.76032 163.519 0.435461 150.034 0.459834 136.493L0.412542 98.1684C0.391807 91.6333 0.602429 83.2252 0.207011 76.9025Z" fill="#F6F8FA"/>
<path d="M35.6942 176.789C40.2253 179.173 45.0489 181.342 49.4298 183.692C59.0169 188.437 68.2476 193.934 77.7525 198.689C79.5124 199.531 80.8929 200.029 82.2611 201.399L82.5415 201.476C84.9922 202.434 99.1171 209.432 100.144 210.839L102.336 211.594C105.05 212.297 106.332 212.92 108.687 214.521C109.556 214.954 113.096 216.643 113.653 217.099L134.198 227.341C135.511 227.997 141.328 231.131 142.132 231.432L141.717 232.044C143.311 237.672 141.761 256.668 142.372 263.817L142.158 265.033C142.259 267.532 142.281 270.034 142.219 272.534L143.289 272.704C146.465 272.785 152.281 276.172 154.831 277.987C155.373 279.31 157.301 283.691 157.407 284.829C152.943 287.235 147.021 290.563 142.376 292.304L142.609 329.99C142.627 332.158 142.972 342.633 142.569 344.044L142.248 344.299C136.639 342.625 129.549 338.576 124.26 335.862L94.6911 320.52L62.3316 303.871C57.5724 301.454 48.0289 297.008 43.9288 294.356C42.0409 293.905 32.6705 288.644 30.5225 287.528C20.6389 282.307 10.6483 277.291 0.557703 272.483C-0.0268745 268.102 0.28013 255.628 0.285586 250.487C0.227383 237.766 0.248489 225.044 0.347799 212.322C0.316878 207.291 0.408913 204.548 0.876357 199.555C-0.566717 197.163 0.17138 192.397 0.325618 189.442C2.31471 188.665 4.73231 188.431 6.85309 187.759C9.71523 186.852 12.4613 185.699 15.3005 184.703C21.2278 182.624 30.8637 180.649 35.6942 176.789Z" fill="#F6F8FA"/>
<path d="M53.4295 246.212C72.3281 255.492 92.3369 266.37 111.088 276.192L131.79 286.959C135.206 288.714 139.102 290.433 142.376 292.304L142.609 329.99C142.627 332.158 142.972 342.633 142.569 344.044L142.249 344.299C136.639 342.625 129.549 338.576 124.26 335.862L94.6912 320.52L62.3317 303.871C57.5725 301.454 48.029 297.008 43.929 294.356C45.6729 294.446 48.7187 296.25 50.543 297.102C51.5303 293.148 51.0839 288.013 51.1833 284.184C51.3953 275.979 50.5325 253.126 53.4295 246.212Z" fill="#4D5762"/>
<path d="M78.2253 276.144C79.3028 276.213 79.3486 276.139 80.2599 276.775C80.9187 277.881 80.7193 278.683 80.6466 279.994C79.4636 279.548 79.3374 279.453 78.4349 278.565C77.9234 277.441 77.9471 277.395 78.2253 276.144Z" fill="#536172"/>
<path d="M107.52 292.373C108.811 292.313 109.313 292.212 110.535 292.539L110.772 293.197L110.117 294.446C109.247 294.867 109.302 294.912 108.352 294.83C107.5 293.795 107.761 293.925 107.52 292.373Z" fill="#536172"/>
<path d="M87.8511 285.954C88.9406 286.198 89.0279 286.185 89.9089 286.828L89.9358 287.598L89.0359 288.531C87.6848 288.301 87.3538 288.479 86.4717 287.652C86.778 286.54 86.754 286.846 87.8511 285.954Z" fill="#536172"/>
<path d="M0.347802 212.323C0.66028 214.865 0.537338 216.853 0.446759 219.384C18.3264 227.504 35.8754 237.685 53.4294 246.212C50.5324 253.126 51.3952 275.979 51.1831 284.184C51.0838 288.013 51.5302 293.148 50.5429 297.102C48.7186 296.25 45.6728 294.446 43.9289 294.356C42.0409 293.906 32.6705 288.644 30.5225 287.528C20.6389 282.307 10.6483 277.291 0.557706 272.483C-0.0268715 268.102 0.280133 255.628 0.28559 250.487C0.227386 237.766 0.248492 225.044 0.347802 212.323Z" fill="#5E7472"/>
<path d="M100.144 210.839L102.336 211.594C105.05 212.297 106.332 212.92 108.687 214.521C109.556 214.954 113.096 216.643 113.653 217.099L134.198 227.341C135.511 227.997 141.328 231.131 142.132 231.432L141.717 232.044C143.311 237.672 141.761 256.668 142.372 263.818L142.157 265.033C140.146 265.611 138 265.534 135.897 265.564C134.104 265.624 131.681 265.499 130.197 266.318C129.095 265.704 127.065 264.854 125.846 264.305L123.231 262.989L119.84 261.337C118.196 260.669 115.435 259.095 113.783 258.218C111.721 256.724 103.635 253.205 100.526 251.54C99.4142 250.747 96.1152 249.044 94.7794 248.309C92.6987 246.998 90.1465 245.893 87.9002 244.581C85.1505 243.14 82.6735 241.62 80.0235 240.014C78.5175 239.604 78.1584 239.504 76.8005 238.754C74.9951 238 72.9824 237.022 71.181 236.2C70.7797 236.049 69.5702 235.264 69.1337 234.995L66.5134 233.257C67.7277 232.436 72.0384 232.382 73.3654 230.253C74.5476 228.355 74.022 226.632 73.6691 224.678C72.8576 222.865 71.2566 220.457 72.6793 218.903C75.8321 218.794 79.7783 217.788 82.7437 216.722C84.4291 216.141 85.655 215.775 87.384 215.341C88.5131 214.964 99.9239 211.015 100.144 210.839Z" fill="#CAC3BE"/>
<path d="M100.144 210.839L102.336 211.594C100.111 211.824 96.6173 211.827 95.1775 213.318C95.9887 215.05 99.98 214.393 101.214 214.982C103.368 216.011 105.431 219.275 107.2 220.521C105.471 222.639 105.027 221.768 104.173 224.593L100.204 225.332C99.828 224.859 99.784 224.578 99.5461 223.985C99.1175 222.939 99.4562 223.336 98.5039 222.745C95.9258 223.141 91.414 221.732 90.1393 219.488C88.1062 216.908 85.8057 216.534 82.7439 216.722C84.4292 216.141 85.6552 215.775 87.3842 215.341C88.5133 214.964 99.924 211.015 100.144 210.839Z" fill="#EDEAE9"/>
<path d="M93.2634 214.84C93.4547 216.262 93.4449 217.512 94.3038 218.593C95.9426 218.769 101.61 217.088 103.23 219.791C101.896 221.581 99.6785 219.581 99.5461 223.985C99.1175 222.939 99.4562 223.336 98.5039 222.745C95.9258 223.141 91.414 221.733 90.1393 219.488C88.1062 216.908 85.8057 216.534 82.7439 216.722C84.4292 216.141 85.6552 215.775 87.3842 215.341C89.4045 215.225 91.2496 215.052 93.2634 214.84Z" fill="#D3C9C2"/>
<path d="M117.017 238.437C117.738 236.868 118.341 235.652 119.884 234.835C121.186 235.91 120.142 237.984 120.244 239.606L120.644 240.037L121.401 240.399C119.702 242.725 108.043 246.779 104.897 246.211L104.853 243.198C105.46 241.187 108.607 235.708 110.928 235.352L111.79 236.145C112.03 237.285 112.008 237.404 111.928 238.596L111.906 238.909C112.845 240.488 114.969 241.399 116.759 240.772C117.447 239.661 117.25 240.069 117.017 238.437Z" fill="#D3C9C2"/>
<path d="M82.7437 216.722C85.8055 216.534 88.106 216.908 90.1391 219.488C88.7877 222.037 86.0623 223.233 85.7077 224.354L86.174 225.73C84.0747 224.325 85.317 224.061 82.2649 223.934C79.8717 223.834 76.62 223.405 75.063 221.39L75.1027 220.984C78.4996 221.565 78.2038 223.898 80.4417 222.348C83.2136 216.641 74.9892 219.321 72.6774 219.962L72.4181 220.242C73.2653 221.266 73.5799 222.931 73.9506 224.224L73.6691 224.678C72.8575 222.865 71.2565 220.457 72.6792 218.903C75.832 218.794 79.7782 217.788 82.7437 216.722Z" fill="#B6B4B2"/>
<path d="M70.9072 232.981L75.877 232.103C76.745 234.069 79.5867 238.606 80.0236 240.014C78.5176 239.604 78.1586 239.504 76.8006 238.754C74.9952 238 72.9825 237.022 71.1811 236.2C70.7799 236.049 69.5703 235.264 69.1338 234.994L70.9072 232.981Z" fill="#D6D8DA"/>
<path d="M71.1809 236.2C73.1125 234.912 74.4017 234.213 76.1049 236.617C76.4719 237.135 76.8146 238.113 76.8004 238.754C74.995 238 72.9823 237.022 71.1809 236.2Z" fill="#CBC9C8"/>
<path d="M113.783 258.218C115.02 257.847 115.802 257.548 117.003 258.088C120.928 259.856 123.583 254.657 127.156 256.756L127.316 257.316C126.494 258.526 125.195 258.912 123.798 259.37C123.707 260.998 123.656 261.42 123.231 262.989L119.84 261.337C118.196 260.669 115.435 259.095 113.783 258.218Z" fill="#CBC9C8"/>
<path d="M119.84 261.337C121.194 260.419 122.307 260.008 123.798 259.37C123.707 260.998 123.656 261.42 123.231 262.989L119.84 261.337Z" fill="#B6B4B2"/>
<path d="M117.017 238.437C115.992 237.966 116.294 238.329 115.872 237.519C116.952 236.565 119.644 234.052 120.513 232.853C121.365 231.686 120.357 228.498 120.87 227.165C122.459 236.488 121.947 230.585 125.075 234.136C125.453 236.472 123.129 239.822 120.644 240.037L120.244 239.607C120.142 237.984 121.186 235.91 119.884 234.836C118.342 235.652 117.738 236.869 117.017 238.437Z" fill="#CBC9C8"/>
<path d="M109.233 221C112.736 221.211 112.572 218.871 115.821 220.408L116.126 220.99C115.155 222.417 112.863 222.182 111.277 223.467C109.684 224.755 108.796 226.164 107.666 227.832C106.297 227.048 106.175 226.889 105.81 225.628C106.157 223.478 107.604 222.298 109.233 221Z" fill="#D6D8DA"/>
<path d="M87.9001 244.581C91.0435 244.379 93.1762 240.194 94.9496 242.792C95.9151 245.124 96.1246 244.652 97.0089 246.216L94.7794 248.309C92.6986 246.998 90.1464 245.893 87.9001 244.581Z" fill="#D6D8DA"/>
<path d="M97.0091 246.216L97.7665 246.106C99.8039 245.794 102.693 245.434 104.661 246.097L104.885 246.708C101.239 246.752 102.025 246.873 100.253 250.556L100.526 251.54C99.4143 250.747 96.1153 249.044 94.7795 248.309L97.0091 246.216Z" fill="#B6B4B2"/>
<path d="M127.836 261.442C128.676 261.767 128.982 261.837 129.655 262.435C131.081 263.7 133.558 263 135.275 262.992C135.664 264.131 135.744 264.38 135.897 265.564C134.104 265.624 131.681 265.499 130.197 266.318C129.095 265.704 127.065 264.854 125.846 264.305C126.446 264.136 126.628 264.018 127.207 263.75C127.472 262.93 127.636 262.281 127.836 261.442Z" fill="#D6D8DA"/>
<path d="M127.836 261.442C129.891 260.919 131.186 258.428 133.292 256.74C133.5 259.336 133.18 261.278 135.275 262.992C133.558 263 131.081 263.7 129.655 262.435C128.982 261.837 128.676 261.767 127.836 261.442Z" fill="#D3C9C2"/>
<path d="M107.2 220.521C107.837 220.666 108.622 220.819 109.233 221C107.604 222.298 106.157 223.478 105.81 225.629C106.175 226.89 106.297 227.048 107.666 227.832C108.127 228.402 108.036 228.484 108.061 229.247C107.171 230.831 106.922 231.291 106.764 233.151L106.304 233.167C105.828 232.051 106.668 230.796 107.11 229.063C106.8 227.74 107.117 228.212 105.866 227.389C105.379 225.948 105.175 225.755 104.173 224.593C105.027 221.768 105.471 222.639 107.2 220.521Z" fill="#D3C9C2"/>
<path d="M104.173 224.593C105.175 225.755 105.379 225.948 105.866 227.389C104.636 228.272 103.848 228.547 102.359 228.267C101.097 227.567 100.855 226.662 100.204 225.332L104.173 224.593Z" fill="#CBC9C8"/>
<path d="M108.687 214.521C109.556 214.954 113.096 216.643 113.653 217.099C112.296 217.818 110.568 219.012 109.185 218.712C108.243 217.487 108.582 216.161 108.687 214.521Z" fill="#D6D8DA"/>
<path d="M94.9497 242.792L95.3255 242.915C98.9115 244.123 100.137 246.269 104.173 244.743C104.452 244.168 104.64 243.805 104.853 243.198L104.897 246.212L104.661 246.097C102.693 245.434 99.8038 245.794 97.7664 246.106L97.009 246.216C96.1247 244.652 95.9152 245.124 94.9497 242.792Z" fill="#CBC9C8"/>
<path d="M111.426 227.224C112.612 228.134 112.79 228.257 113.431 229.598C113.496 230.975 113.3 231.128 112.587 232.389C111.361 231.977 110.884 231.972 110.226 230.962C110.142 229.466 110.815 228.792 111.426 227.224Z" fill="#CBC9C8"/>
<path d="M35.6942 176.789C40.2253 179.173 45.0489 181.342 49.4298 183.692C59.0169 188.437 68.2476 193.934 77.7525 198.689C79.5124 199.531 80.8929 200.029 82.2611 201.399L82.5415 201.476C84.9922 202.434 99.1171 209.432 100.144 210.839C99.9239 211.015 88.5132 214.964 87.384 215.341C85.655 215.775 84.4291 216.141 82.7438 216.722C79.7783 217.788 75.8322 218.794 72.6794 218.903C71.3818 218.986 69.8518 218.89 68.5349 218.847C64.0096 219.016 58.44 219.268 54.1078 218.145C53.1268 217.652 52.4607 216.437 51.8554 215.495C50.699 215.509 50.7281 215.559 49.7121 215.066C49.4982 214.056 49.4665 214.577 50.1024 213.488C50.4454 211.598 50.3334 210.288 52.3287 209.699C50.9158 208.874 49.6156 209.198 47.6949 209.134C39.5356 211.099 43.3821 210.514 35.2071 210.213C31.7357 210.775 28.2598 211.309 24.7804 211.817C21.5003 210.527 18.3027 208.387 15.143 206.729C10.462 204.273 5.69448 201.72 0.876357 199.555C-0.566717 197.163 0.17138 192.397 0.325618 189.442C2.31471 188.665 4.73231 188.431 6.85309 187.759C9.71523 186.852 12.4613 185.699 15.3005 184.703C21.2278 182.624 30.8637 180.649 35.6942 176.789Z" fill="#89888A"/>
<path d="M77.7525 198.689C79.5124 199.531 80.8929 200.029 82.261 201.399L82.5415 201.476C84.9922 202.434 99.117 209.432 100.144 210.839C99.9238 211.015 88.5131 214.964 87.384 215.341C85.655 215.775 84.4291 216.141 82.7437 216.722C79.7783 217.788 75.8321 218.794 72.6793 218.903C71.3817 218.986 69.8517 218.89 68.5349 218.847C64.0096 219.016 58.4399 219.268 54.1078 218.145C53.1267 217.652 52.4606 216.437 51.8553 215.495C50.6989 215.509 50.728 215.559 49.712 215.066C49.4981 214.056 49.4665 214.577 50.1023 213.488C50.4454 211.598 50.3333 210.288 52.3286 209.699C50.9157 208.874 49.6156 209.198 47.6949 209.134L46.1245 209.039C46.3053 207.851 60.5883 204.209 62.4716 203.447C64.1613 202.762 64.2871 202.565 65.5043 201.203C67.1496 200.752 69.7142 199.662 71.3832 199.008C73.4854 199.264 76.7965 200.77 77.7525 198.689Z" fill="#E9E9EA"/>
<path d="M54.1079 218.145C57.0603 218.059 60.6696 218.372 62.913 216.61C64.0872 216.688 65.83 218.461 68.535 218.847C64.0097 219.016 58.44 219.268 54.1079 218.145Z" fill="#EDEAE9"/>
<path d="M50.1024 213.488C51.0562 212.357 51.3657 210.825 52.305 210.185C53.5294 210.582 53.6 211.866 53.6553 213.049C53.0023 213.963 52.6007 214.142 51.6517 214.788L51.6564 215.311L51.8554 215.495C50.6989 215.509 50.7281 215.559 49.7121 215.066C49.4982 214.056 49.4665 214.577 50.1024 213.488Z" fill="#EDEAE9"/>
<path d="M82.261 201.399L82.5415 201.477L82.3054 202.213C80.4607 203.353 78.1042 204.382 76.1213 202.981L76.3731 202.479C78.5604 201.527 79.691 201.881 81.9133 201.466L82.261 201.399Z" fill="#B9C4D0"/>
<path d="M49.4297 183.692C59.0169 188.437 68.2475 193.934 77.7525 198.689C76.7965 200.77 73.4854 199.264 71.3832 199.008C69.7142 199.662 67.1497 200.752 65.5043 201.203C64.2872 202.565 64.1613 202.762 62.4716 203.447C60.5884 204.209 46.3053 207.851 46.1245 209.039L47.6949 209.134C39.5356 211.099 43.3821 210.514 35.2071 210.213L35.2278 209.875C34.6141 208.332 37.7778 201.825 37.2307 200.33C35.6058 195.889 35.4828 193.545 40.3108 190.326C42.1271 190.391 43.692 190.201 45.4959 190.027C45.9699 190.609 45.8713 190.639 46.0259 191.379C46.7797 188.042 48.489 186.896 49.4297 183.692Z" fill="#B0AEAD"/>
<path d="M35.2278 209.875C35.9215 209.737 39.924 208.207 40.9229 207.857C49.5155 204.844 56.4712 202.53 65.5043 201.203C64.2871 202.565 64.1613 202.762 62.4716 203.446C60.5883 204.209 46.3053 207.851 46.1245 209.039L47.6949 209.134C39.5355 211.099 43.382 210.514 35.207 210.213L35.2278 209.875Z" fill="#CBC9C8"/>
<path d="M47.6948 209.134C49.6155 209.198 50.9157 208.874 52.3286 209.699C50.3333 210.288 50.4453 211.598 50.1023 213.488C49.4664 214.577 49.4981 214.056 49.712 215.066C50.728 215.559 50.6989 215.509 51.8553 215.495C52.4606 216.437 53.1267 217.652 54.1077 218.145C58.4399 219.268 64.0095 219.016 68.5348 218.847C69.8517 218.89 71.3817 218.986 72.6793 218.903C71.2566 220.457 72.8575 222.865 73.6691 224.678C74.0219 226.632 74.5476 228.355 73.3653 230.253C72.0383 232.382 67.7276 232.436 66.5134 233.257C61.6534 230.654 56.9833 228.419 52.1245 225.642C43.5235 220.727 33.2386 216.964 24.7803 211.817C28.2597 211.309 31.7356 210.775 35.207 210.214C43.382 210.514 39.5355 211.099 47.6948 209.134Z" fill="#D6D8DA"/>
<path d="M43.5073 213.916C44.6783 213.798 45.3145 213.632 46.4182 213.956C46.9159 214.947 46.5801 215.289 46.2803 216.599C44.9748 216.502 44.0264 216.578 42.9511 215.881C42.7303 214.771 42.7565 215.174 43.5073 213.916Z" fill="#CBC9C8"/>
<path d="M142.158 265.033C142.259 267.532 142.281 270.034 142.219 272.534C138.305 270.402 134.173 268.353 130.197 266.318C131.681 265.499 134.104 265.624 135.897 265.564C138 265.534 140.146 265.611 142.158 265.033Z" fill="#6D8594"/>
<path d="M0.207031 76.9025C2.70504 73.1862 15.0725 67.8949 19.5887 65.3908C43.397 52.1844 67.3283 39.2011 91.3793 26.4425L120.255 10.556C145.763 -3.54212 138.251 -3.46099 163.94 10.4534L215.803 38.874C229.182 46.0978 242.82 53.0743 256.068 60.4924C260.677 63.0719 267.964 66.7667 272.151 69.5182C275.941 71.1845 282.052 73.7184 284.93 76.5143C275.614 82.5209 264.293 87.3057 254.722 93.2144C250.968 95.5326 246.279 97.0897 242.653 99.7317C242.292 99.9758 242.143 100.609 241.943 101.096C241.83 99.1718 240.797 98.9161 239.28 97.9723C227.04 90.9046 212.445 83.5399 199.848 76.9982L161.139 56.4741C158.185 54.9199 153.831 52.6938 151.023 50.6444C151.019 50.6422 150.186 48.9654 150.186 48.9654C147.814 48.1748 143.078 45.937 140.968 45.3015C134.795 48.5528 128.869 53.2264 122.641 56.6717C100.848 68.7291 78.9959 80.8739 56.7354 92.0458C52.4247 94.2091 48.6568 96.6422 44.0984 98.3747C43.7655 99.1336 43.7604 99.0743 43.8506 99.894C43.2941 99.0001 4.70904 79.7046 0.207031 76.9025Z" fill="#C3CBD4"/>
<path d="M239.28 97.9724L240.379 97.9135C241.208 96.4531 246.425 89.8791 248.269 90.0464C250.401 90.2396 253.351 91.5631 255.934 91.7865C258.978 90.0668 282.289 77.7317 283.453 76.4791C282.231 74.2253 274.439 72.0748 272.121 70.127L272.15 69.5183C275.941 71.1846 282.052 73.7185 284.93 76.5144C275.614 82.521 264.293 87.3058 254.722 93.2145C250.968 95.5327 246.279 97.0898 242.652 99.7318C242.292 99.9759 242.143 100.609 241.943 101.096C241.83 99.1719 240.797 98.9161 239.28 97.9724Z" fill="#94ACBC"/>
<path d="M198.287 60.2404C199.888 60.2815 201.063 60.348 201.361 62.0238C200.892 63.4623 200.28 63.8399 199.167 64.8764C197.756 64.1884 196.657 63.2818 196.279 61.7705C196.883 60.6704 196.916 60.9349 198.287 60.2404Z" fill="#D6D8DA"/>
<path d="M169.528 52.2623C170.932 52.2259 173.907 52.2557 175.108 53.0037C175.599 53.3097 175.552 53.843 175.715 54.5663C172.911 55.3962 170.623 55.1026 169.528 52.2623Z" fill="#D6D8DA"/>
<path d="M250.397 76.9644C251.07 76.8291 250.797 76.8956 251.605 77.1841C252.03 78.2949 252.027 77.7531 251.627 78.8635C249.939 79.9695 250.055 79.6206 247.749 79.7428C246.992 79.8629 246.996 79.789 246.261 79.5184L246.326 79.1171C247.512 78.0704 248.942 77.5763 250.397 76.9644Z" fill="#B9C4D0"/>
<path d="M150.881 29.1391C151.608 28.5046 152.714 28.5825 153.351 29.313C153.984 30.0436 153.904 31.1499 153.173 31.7829C152.441 32.4156 151.339 32.3367 150.706 31.6069C150.073 30.8774 150.15 29.7725 150.881 29.1391Z" fill="#D6D8DA"/>
<path d="M48.0751 64.9445C49.1431 65.333 49.2424 65.7572 49.2249 66.7097C48.1147 68.154 48.6495 67.6658 46.7135 68.4614C46.0241 67.9579 46.0758 67.9816 45.656 67.2292C46.2151 65.9482 46.8026 65.8463 48.0751 64.9445Z" fill="#D6D8DA"/>
<path d="M235.588 73.0941C236.803 73.1665 236.741 73.1421 237.756 73.8123C238.153 75.1009 238.134 74.5552 237.64 75.9304C236.752 76.228 236.647 76.3612 235.744 76.1167C235.162 75.0511 235.461 74.4861 235.588 73.0941Z" fill="#B9C4D0"/>
<path d="M239.393 67.4187C240.408 67.8054 239.964 67.4995 240.648 68.504C240.379 70.0039 240.484 69.5204 239.375 70.8265C238.473 70.5147 238.538 70.5373 237.884 69.8373C238 68.7219 238.56 68.4101 239.393 67.4187Z" fill="#B9C4D0"/>
<path d="M157.407 284.829C164.802 281.341 172.783 276.971 180.099 273.134C192.445 266.666 204.831 260.268 217.251 253.941C228.353 248.358 239.371 242.902 250.35 237.042C261.183 231.26 274.908 225.361 285.199 219.121C285.748 222.479 285.443 240.961 285.315 245.082C285.097 252.113 285.788 265.924 285.024 272.269C279.066 275.723 269.866 279.918 263.511 283.138L226.01 302.539C222.703 304.254 219.357 306.06 216.097 307.867C205.606 313.688 194.602 318.625 184.02 324.235C175.166 329.004 166.246 333.639 157.258 338.14C154.046 339.78 145.359 345.212 142.249 344.299L142.569 344.044C142.972 342.633 142.627 332.158 142.609 329.99L142.376 292.304C147.021 290.563 152.943 287.235 157.407 284.829Z" fill="#13324D"/>
<path d="M260.343 202.533C268.877 199.177 276.694 196.465 285.075 193.283C285.246 196.075 285.246 197.751 285.097 200.545C284.912 205.538 284.351 214.521 285.199 219.121C274.908 225.361 261.183 231.26 250.35 237.042C239.371 242.902 228.353 248.358 217.25 253.941C204.831 260.268 192.445 266.666 180.099 273.134C172.783 276.971 164.802 281.341 157.407 284.829C157.301 283.691 155.373 279.31 154.831 277.987C152.281 276.172 146.464 272.785 143.289 272.704L142.219 272.534C142.281 270.034 142.259 267.532 142.157 265.033L142.372 263.817C141.761 256.668 143.311 237.672 141.717 232.044L142.132 231.432C159.567 222.925 177.418 213.528 194.642 204.55C197.068 204.744 200.353 204.909 202.696 205.26C206.486 206.189 210.848 207.204 214.737 207.503C216.796 207.638 217.872 207.695 219.928 207.559C220.03 207.778 220.412 208.566 220.452 208.744C221.616 208.603 221.616 208.522 222.641 209.233C226.461 211.878 227.054 214.758 231.878 214.927C233.413 214.088 236.814 213.548 238.956 212.867C239.004 212.827 241.725 211.183 241.954 211.039C247.614 207.337 253.726 205.23 259.837 202.466L260.343 202.533Z" fill="#D6D8DA"/>
<path d="M194.642 204.55C197.068 204.744 200.353 204.909 202.696 205.26C206.486 206.189 210.848 207.204 214.737 207.503C216.796 207.638 217.872 207.695 219.928 207.559C220.03 207.778 220.412 208.566 220.452 208.744C221.616 208.603 221.616 208.522 222.641 209.233C226.461 211.878 227.054 214.758 231.878 214.927C229.389 216.148 222.849 219.45 220.794 220.964C215.599 222.68 211.004 225.42 206.632 228.651C204.664 229.751 199.462 232.953 197.803 233.633C195.464 235.007 192.048 237.879 190.553 238.674C188.8 240.629 186.417 241.528 184.373 243.094C180.004 246.435 174.558 249.076 170.448 252.614C168.978 254.295 166.497 254.719 166.104 255.184C161.252 260.949 154.5 261.963 147.527 264.898C145.981 264.487 143.7 263.502 142.372 263.817C141.761 256.668 143.311 237.672 141.717 232.044L142.132 231.432C159.567 222.925 177.418 213.528 194.642 204.55Z" fill="#536172"/>
<path d="M202.696 205.26C206.486 206.189 210.848 207.204 214.737 207.503C216.796 207.638 217.872 207.695 219.928 207.559C220.03 207.778 220.412 208.566 220.452 208.744C221.616 208.603 221.616 208.522 222.641 209.233C226.461 211.878 227.054 214.758 231.878 214.927C229.389 216.148 222.849 219.45 220.794 220.964C215.599 222.68 211.004 225.42 206.632 228.651C204.664 229.751 199.462 232.953 197.803 233.633C195.464 235.007 192.048 237.88 190.553 238.674C189.295 238.827 188.549 238.907 187.283 238.899C186.064 238.175 186.435 238.38 185.661 236.951C187.458 236.148 189.266 236.981 190.466 235.555L190.077 234.898C189.102 234.383 187.56 234.829 186.385 235.022L185.85 234.582C186.206 233.046 186.959 231.335 187.545 229.845C190.073 229.371 189.724 230.167 191.801 231.254C192.441 227.098 188.829 227.469 187.37 225.464C187.647 224.354 187.356 224.79 188.276 224.113C191.787 224.32 194.784 220.775 197.33 218.483C201.456 212.879 201.663 215.979 203.729 208.686C203.147 207.34 203.023 206.664 202.696 205.26Z" fill="#637E9F"/>
<path d="M214.737 207.503C216.796 207.638 217.872 207.695 219.928 207.559C220.03 207.778 220.412 208.566 220.452 208.744C221.157 209.603 222.11 210.558 222.372 211.596C220.968 212.964 219.644 213.862 219.557 215.814C218.887 215.503 218.305 215.001 217.258 214.526C215.948 214.939 215.617 215.754 214.588 216.959C213.049 215.294 212.118 214.721 210.484 213.264C210.175 212.986 210.382 212.626 210.492 212.047C212.23 211.165 212.114 213.446 214.551 213.336C215.61 211.922 214.97 209.336 214.737 207.503Z" fill="#6A819C"/>
<path d="M203.729 208.686C204.482 210.057 207.239 214.132 207.443 214.764C206.654 215.536 206.577 215.521 205.471 215.8C204.402 215.503 204.427 215.489 203.482 214.873C200.248 215.588 201.892 218.046 199.968 219.665C198.789 219.691 198.36 219.2 197.33 218.483C201.455 212.879 201.663 215.979 203.729 208.686Z" fill="#586F83"/>
<path d="M199.608 228.543C201.055 227.888 204.744 228.568 206.632 228.651C204.664 229.751 199.462 232.954 197.803 233.633L198.542 232.333L197.876 230.527C198.218 230.243 198.174 229.783 198.28 229.21C198.691 228.93 199.149 228.752 199.608 228.543Z" fill="#6A819C"/>
<path d="M222.372 211.596C223.453 212.319 223.649 212.353 224.148 213.486C223.413 215.27 221.343 215.382 219.557 215.814C219.644 213.862 220.968 212.964 222.372 211.596Z" fill="#8096B4"/>
<path d="M198.28 229.21C197.41 228.806 197.25 228.521 196.636 227.807C196.348 226.534 196.279 227.121 196.752 225.978C197.847 225.42 197.301 225.46 198.44 225.809C199.375 226.646 199.335 227.234 199.608 228.543C199.149 228.752 198.691 228.93 198.28 229.21Z" fill="#94ACBC"/>
<path d="M182.223 232.949C182.918 232.611 184.929 232.166 185.832 231.926C186.392 230.78 186.479 230.539 187.545 229.845C186.959 231.335 186.206 233.046 185.85 234.582L186.385 235.022C187.56 234.829 189.102 234.383 190.077 234.898L190.466 235.555C189.266 236.981 187.458 236.148 185.661 236.951C186.435 238.38 186.064 238.175 187.283 238.899C188.549 238.907 189.295 238.827 190.553 238.674C188.8 240.629 186.417 241.528 184.373 243.094C180.004 246.435 174.558 249.076 170.448 252.614C169.891 252.09 169.353 251.546 168.833 250.984C167.534 249.586 166.679 248.625 166.752 246.668C167.003 244.577 166.988 242.062 167.028 239.924C170.24 239.309 174.002 238.908 176.803 237.438C178.691 235.566 179.327 234.837 181.612 233.557L182.223 232.949Z" fill="#6A819C"/>
<path d="M182.223 232.949L185.177 233.078C184.984 233.911 184.871 234.275 184.599 235.059C183.442 235.823 184.038 235.697 182.787 235.623C181.874 234.879 181.903 234.766 181.612 233.557L182.223 232.949Z" fill="#8096B4"/>
<path d="M166.752 246.668C166.523 245.999 166.046 241.938 166.072 241.056C166.17 237.314 171.223 239.827 173.242 237.819C173.678 237.385 173.387 235.847 173.376 234.889L173.998 234.614C174.933 234.976 175.752 236.555 176.803 237.438C174.002 238.908 170.241 239.309 167.028 239.924C166.988 242.061 167.003 244.577 166.752 246.668Z" fill="#586F83"/>
<path d="M162.802 222.61C163.955 223.075 163.511 222.683 164.06 223.944C164.017 225.192 164.02 225.236 163.34 226.245C162.816 225.82 162.26 225.296 161.75 224.843C161.641 223.597 161.736 223.943 162.802 222.61Z" fill="#6D8594"/>
<path d="M238.957 212.867C240.142 213.495 239.742 213.158 240.401 214.537C244.719 215.341 244.777 215.481 246.323 219.53C242.194 221.702 235.803 225.26 231.714 226.99C225.344 230.56 219.608 233.239 213.213 236.584L157.698 265.396C152.958 267.907 147.92 270.063 143.289 272.704L142.219 272.534C142.281 270.034 142.259 267.532 142.157 265.033L142.372 263.817C143.7 263.502 145.981 264.487 147.527 264.898C154.5 261.964 161.252 260.949 166.104 255.184C166.497 254.719 168.978 254.295 170.448 252.614C174.558 249.076 180.004 246.435 184.373 243.094C186.417 241.528 188.8 240.629 190.553 238.674C192.048 237.88 195.464 235.007 197.803 233.633C199.462 232.953 204.664 229.751 206.632 228.651C211.004 225.42 215.599 222.68 220.794 220.964C222.849 219.45 229.389 216.148 231.878 214.927C233.413 214.088 236.814 213.548 238.957 212.867Z" fill="#41575B"/>
<path d="M238.957 212.867C240.143 213.495 239.742 213.158 240.401 214.537C244.719 215.341 244.777 215.481 246.323 219.53C242.194 221.702 235.803 225.26 231.714 226.99L231.649 226.551C230.128 226.843 229.157 225.623 228.771 225.668C226.225 225.963 223.868 221.105 220.794 220.964C222.849 219.45 229.39 216.148 231.878 214.927C233.413 214.088 236.814 213.548 238.957 212.867Z" fill="#536172"/>
<path d="M260.343 202.533C268.877 199.177 276.694 196.465 285.075 193.283C285.246 196.075 285.246 197.751 285.097 200.545C284.399 200.251 284.402 200.155 283.486 200.635C280.044 202.429 276.509 204.247 273.053 205.994L246.323 219.53C244.777 215.481 244.719 215.341 240.401 214.537C239.742 213.158 240.142 213.495 238.957 212.867C239.004 212.827 241.725 211.183 241.954 211.039C247.614 207.337 253.726 205.23 259.837 202.466L260.343 202.533Z" fill="#495C67"/>
<path d="M241.954 211.039C247.614 207.337 253.726 205.23 259.837 202.466L260.343 202.533C262.136 210.019 254.02 205.665 253.966 210.788C252.736 211.764 252.096 211.841 250.615 212.222C249.371 212.348 248.538 212.515 247.603 213.291C246.025 214.606 242.805 214.213 240.401 214.537C239.742 213.158 240.142 213.495 238.957 212.867C239.004 212.827 241.725 211.183 241.954 211.039Z" fill="#6A819C"/>
<path d="M250.615 212.222C250.43 210.771 250.299 210.536 251.605 209.807C252.896 209.927 252.929 209.95 253.966 210.788C252.736 211.764 252.096 211.841 250.615 212.222Z" fill="#6D8594"/>
<path d="M153.427 98.847C153.744 98.9932 153.533 98.9245 154.089 98.9227C155.999 93.7973 154.518 80.3617 156.497 74.1784C156.832 73.1375 157.974 68.4207 157.781 67.7021C158.673 67.6654 162.201 69.7439 163.231 70.2925C164.733 70.7942 165.359 70.9113 166.646 71.8649C179.498 78.575 192.39 85.4787 205.199 92.2576C210.641 95.1387 224.428 103.058 229.648 104.953L229.499 106.124C229.531 113.426 230.033 130.332 229.386 136.792L228.746 137.393L228.389 137.815C229.295 139.058 229.371 151.532 229.28 153.851C227.32 153.491 225.926 153.136 223.933 153.313C217.312 151.282 210.528 149.694 203.976 147.426C202.361 146.867 200.772 146.343 199.102 145.973C196.956 143.771 199.317 144.489 197.771 142.529C193.78 141.596 191.274 137.986 188.403 134.833L185.486 131.693C184.737 131.186 184.369 130.536 183.842 129.795C177.352 124.455 170.426 119.29 164.409 113.407C160.808 109.889 158.283 107.89 154.133 105.095C155.584 104.783 155.49 105.941 157.196 106.179L157.414 105.365C156.825 104.52 155.482 104.222 154.449 103.851L154.606 103.329C156.217 102.491 155.599 103.867 157.61 103.646C158.163 102.539 158.014 101.843 157.967 100.579C156.788 101.707 156.123 103.513 153.591 102.58L153.347 102.026C154.809 101.776 154.66 102.043 155.49 101.184C155.406 100.026 155.41 100.09 154.737 99.126C153.794 101.124 153.642 101.033 151.579 101.439C152.278 101.699 153.063 101.457 153.496 100.851C153.925 100.244 153.9 99.4229 153.427 98.847Z" fill="#A0B4C8"/>
<path d="M228.745 137.393C227.298 136.214 224.497 135.584 223.005 134.646C216.465 130.541 201.375 127.203 195.984 122.954L195.999 122.557C200.284 122.052 222.325 108.643 229.498 106.124C229.531 113.426 230.033 130.332 229.386 136.792L228.745 137.393Z" fill="#586F83"/>
<path d="M183.842 129.795C185.435 129.425 188.694 128.505 190.16 129.441C189.848 130.413 189.488 130.395 188.473 131.164C187.574 131.26 186.086 131.224 185.486 131.693C184.737 131.186 184.369 130.536 183.842 129.795Z" fill="#D6D8DA"/>
<path d="M163.231 70.2925C164.733 70.7942 165.359 70.9113 166.647 71.8649C165.115 73.1873 166.039 74.2049 164.74 75.4248L164.195 75.1898C162.852 73.0465 162.86 72.6438 163.231 70.2925Z" fill="#EDEAE9"/>
<path d="M163.664 107.133C162.481 107.056 162.976 107.254 162.078 106.671C161.576 104.832 161.961 103.666 163.853 103.078C165.217 103.37 164.733 103.182 165.828 104.325C166.119 106.251 168.236 107.017 168.462 108.799C167.334 108.941 164.85 107.643 163.664 107.133Z" fill="#D6D8DA"/>
<path d="M165.828 104.324C166.119 106.251 168.236 107.017 168.462 108.799C167.334 108.941 164.849 107.642 163.664 107.133C165.09 106.514 165.293 105.689 165.828 104.324Z" fill="#B9C4D0"/>
<path d="M187.192 92.6036C188.956 92.5432 189.95 92.3569 191.037 93.8035C191.001 94.8698 191.023 94.8149 190.481 95.7313C189.204 95.7371 188.233 95.9259 187.265 95.195C186.774 94.2324 187.003 93.6848 187.192 92.6036Z" fill="#B9C4D0"/>
<path d="M167.578 81.0471C168.542 80.6986 169.604 81.1901 169.964 82.1494C170.321 83.1084 169.84 84.1766 168.884 84.5433C167.916 84.9148 166.829 84.4251 166.468 83.4533C166.105 82.4812 166.603 81.4003 167.578 81.0471Z" fill="#B9C4D0"/>
<path d="M178.633 79.5591C179.808 80.1918 179.946 80.1943 180.528 81.3265C180.692 82.5947 180.466 82.8938 180.001 84.1427C179.029 84.2523 179.455 84.3574 178.658 83.8797C178.12 82.4598 178.451 81.1155 178.633 79.5591Z" fill="#B9C4D0"/>
<path d="M179.8 86.0281C182.11 86.1005 183.147 85.8858 183.682 88.2102C182.365 88.3809 182.223 88.4118 180.924 88.2328C179.884 87.2505 180.211 87.6114 179.8 86.0281Z" fill="#B9C4D0"/>
<path d="M0.325638 189.442C0.541717 185.628 0.283802 180.978 0.391114 177.049C0.76034 163.519 0.435481 150.034 0.459854 136.493L0.412562 98.1685C0.391827 91.6333 0.602449 83.2253 0.207031 76.9026C4.70904 79.7047 43.2941 99.0002 43.8506 99.8941C43.9634 109.406 43.9631 118.92 43.8496 128.432C43.831 132.588 43.6353 138.846 43.938 142.902C43.9438 143.798 43.8321 144.974 44.2635 145.688L43.5706 146.263C36.0271 150.764 25.3726 153.79 17.4632 158.268C15.4901 159.385 11.9859 159.465 9.64468 160.942C8.13467 160.738 6.49225 159.841 4.82 159.358C3.75561 159.903 3.21541 159.91 2.86328 160.75C13.9368 165.956 24.6993 171.423 35.6942 176.789C30.8637 180.649 21.2278 182.625 15.3006 184.703C12.4613 185.699 9.71525 186.852 6.85311 187.759C4.73233 188.431 2.31473 188.665 0.325638 189.442Z" fill="#536172"/>
<path d="M4.82007 159.358C7.18312 158.763 10.261 157.468 12.5243 156.525C22.4072 152.406 32.5488 148.97 42.3633 144.687C43.7467 144.083 43.4877 144.184 43.938 142.902C43.9438 143.798 43.8322 144.974 44.2636 145.688L43.5706 146.263C36.0271 150.764 25.3727 153.79 17.4632 158.268C15.4901 159.385 11.986 159.465 9.64474 160.942C8.13474 160.738 6.49232 159.841 4.82007 159.358Z" fill="#C6D4E2"/>
<path d="M241.943 101.096C242.143 100.609 242.292 99.9759 242.653 99.7318C246.279 97.0898 250.968 95.5327 254.722 93.2145C264.293 87.3058 275.614 82.5209 284.93 76.5144C286.072 80.6597 285.17 94.526 285.148 99.3454C285.123 105.731 285.097 112.67 285.097 119.103C285.075 126.717 285.104 134.33 285.188 141.943C285.243 146.303 285.45 155.137 285.072 159.485C284.613 159.438 284.813 159.449 284.351 158.91C284.075 159.281 283.457 160.028 283.318 160.412L281.772 161.284C279.335 160.052 278.549 160.649 275.694 161.315C264.722 163.532 252.991 165.23 242.121 168.192C241.187 167.184 241.314 146.953 242.092 145.641C242.322 144.886 242.231 144.769 242.183 143.962L241.932 143.96C241.86 129.971 241.609 115.016 241.943 101.096Z" fill="#41575B"/>
<path d="M242.121 168.192C241.187 167.184 241.314 146.953 242.092 145.641C251.234 150.21 260.634 154.134 270.019 158.163C271.856 158.952 273.653 159.622 275.57 160.203C275.817 160.884 275.806 160.616 275.694 161.315C264.722 163.532 252.991 165.23 242.121 168.192Z" fill="#6A819C"/>
<path d="M242.183 143.962C246.41 145.191 251.892 147.559 256.097 149.24C262.758 151.938 269.455 154.544 276.188 157.058C277.614 157.747 282.493 159.807 283.318 160.412L281.772 161.284C279.335 160.052 278.549 160.649 275.694 161.315C275.806 160.616 275.817 160.884 275.57 160.203C273.653 159.622 271.856 158.952 270.019 158.163C260.634 154.134 251.234 150.21 242.092 145.641C242.321 144.886 242.231 144.769 242.183 143.962Z" fill="#B9C4D0"/>
<path d="M276.188 157.058C278.277 156.37 282.565 156.002 284.261 157.626L284.351 158.91C284.075 159.281 283.457 160.028 283.318 160.412C282.493 159.807 277.614 157.747 276.188 157.058Z" fill="#5E7472"/>
<path d="M66.2141 99.8718C70.5506 96.6222 86.168 89.0673 91.7267 86.1292L114.478 74.0324C118.924 71.6571 123.729 68.8619 128.262 66.8253L128.516 67.04C127.694 67.5489 126.857 68.0193 126.017 68.4999C125.548 71.3242 128.48 71.6145 128.931 73.1858C129.557 75.3563 130.411 82.2935 129.698 84.2646C129.851 86.0233 129.331 86.4559 129.357 87.7394C131.266 91.7472 127.101 96.8816 124.242 99.3501C125.963 99.3341 128.516 97.5372 129.939 97.6416C130.317 98.5974 131.463 104.28 131.332 105.121C127.887 107.064 124.751 108.889 121.044 110.336C115.359 112.454 109.662 114.602 104.107 116.897C101.475 117.984 89.4932 123.587 88.0294 123.804C83.145 125.695 77.5732 128.508 72.7143 130.711C66.9624 133.319 62.2137 135.159 56.3178 137.328C56.1853 127.006 56.2676 116.487 56.2439 106.149L56.4098 105.219C57.7572 103.5 64.1432 100.259 66.2141 99.8718Z" fill="#99AFC7"/>
<path d="M56.2439 106.149C58.1013 106.681 74.9231 116.014 78.2301 117.671C81.0577 119.207 85.8708 121.584 88.0294 123.804C83.145 125.695 77.5732 128.508 72.7143 130.711C66.9624 133.319 62.2137 135.159 56.3178 137.328C56.1853 127.006 56.2676 116.487 56.2439 106.149Z" fill="#536172"/>
<path d="M56.2439 106.149L56.4098 105.219C57.7572 103.5 64.1431 100.259 66.2141 99.8718C65.0373 101.66 61.8347 101.96 60.9001 103.144C62.5011 104.878 61.7292 107.405 63.4436 108.075C71.034 111.043 74.85 107.738 78.2301 117.671C74.9231 116.014 58.1013 106.681 56.2439 106.149Z" fill="#8096B4"/>
<path d="M129.356 87.7394C127.843 87.6943 127.196 87.5702 126.508 86.2158L126.839 85.3554C127.843 84.4102 128.251 84.4855 129.698 84.2646C129.851 86.0233 129.331 86.4559 129.356 87.7394Z" fill="#D6D8DA"/>
<path d="M95.5529 115.508C96.8872 115.421 96.984 115.385 98.2382 115.762C98.8319 116.757 98.7057 116.312 98.4096 117.717C97.1087 117.757 96.9581 117.816 95.7803 117.356C95.2488 116.395 95.3841 116.782 95.5529 115.508Z" fill="#94ACBC"/>
<path d="M117.501 100.356C118.269 100.674 118.36 100.84 118.96 101.399C119.094 102.626 119.098 102.192 118.371 103.465C117.392 102.996 117.123 102.847 116.224 102.246L116.221 101.529L117.501 100.356Z" fill="#B9C4D0"/>
<path d="M284.351 158.91C284.813 159.449 284.613 159.438 285.072 159.485C285.475 169.608 284.591 182.819 285.253 191.917L285.075 193.283C276.694 196.465 268.877 199.177 260.342 202.533L259.837 202.466C253.726 205.23 247.614 207.337 241.954 211.039C241.725 211.183 239.004 212.827 238.956 212.867C236.814 213.549 233.413 214.088 231.878 214.927C227.054 214.758 226.461 211.878 222.641 209.233C221.616 208.522 221.616 208.603 220.452 208.744C220.412 208.566 220.03 207.778 219.928 207.559C217.872 207.695 216.796 207.638 214.737 207.503C210.848 207.204 206.486 206.189 202.696 205.26C200.353 204.909 197.068 204.744 194.642 204.55C203.816 199.464 215.126 194.126 224.675 189.136C231.714 185.97 237.876 182.415 244.729 179.145C257.2 173.073 269 166.726 281.772 161.284L283.318 160.412C283.456 160.028 284.075 159.281 284.351 158.91Z" fill="#94ACBC"/>
<path d="M284.351 158.91C284.813 159.449 284.613 159.438 285.072 159.485C285.475 169.608 284.591 182.819 285.253 191.917C276.541 186.496 270.601 190.808 262.423 188.71C258.12 187.605 253.838 185.088 248.236 183.632C246.745 182.031 245.817 181.027 244.729 179.145C257.2 173.073 269 166.726 281.772 161.284L283.318 160.412C283.456 160.028 284.075 159.281 284.351 158.91Z" fill="#41575B"/>
<path d="M244.73 179.145C245.817 181.027 246.745 182.032 248.236 183.632C253.838 185.088 258.12 187.605 262.423 188.71C270.601 190.808 276.541 186.496 285.254 191.917L285.075 193.283C276.694 196.465 268.877 199.177 260.343 202.533L259.837 202.466C260.641 201.295 261.881 201.044 263.264 200.768L263.551 200.713L264.039 199.922C263.082 199.713 252.078 202.625 249.833 203.011C248.418 202.239 247.909 199.549 246.854 199.099C239.87 196.132 230.081 195.477 224.675 189.136C231.714 185.97 237.876 182.415 244.73 179.145Z" fill="#6D8594"/>
<path d="M219.928 207.559C223.569 208.438 229.306 209.368 232.943 210.486C233.107 210.536 233.995 211.639 234.184 211.882C238.185 212.356 238.018 209.528 241.954 211.039C241.725 211.183 239.004 212.827 238.956 212.867C236.814 213.549 233.413 214.088 231.878 214.927C227.054 214.758 226.461 211.878 222.641 209.233C221.616 208.522 221.616 208.603 220.452 208.744C220.412 208.566 220.03 207.778 219.928 207.559Z" fill="#8096B4"/>
<path d="M220.699 196.161C222.318 196.553 222.809 197.658 222.485 199.193C221.558 200.212 221.907 199.892 220.219 200.164C219.077 199.583 219.135 199.695 218.942 198.581C219.535 197.779 220.121 196.972 220.699 196.161Z" fill="#B9C4D0"/>
<path d="M166.541 145.204C165.424 143.863 165.453 144.278 165.17 142.769C166.272 140.856 168.436 141.438 168.229 139.46C167.24 138.526 167.174 138.394 165.937 137.922C165.759 138.755 167.029 138.176 167.261 139.845C166.545 141.023 166.246 141.113 165.061 141.909C163.547 141.652 163.293 140.435 162.118 139.676C160.455 138.599 159.273 139.134 158.549 136.899C159.411 133.722 166.301 129.74 166.141 128.037C164.457 127.671 164.071 127.875 164.107 126.166C165.057 125.437 165.039 125.664 166.439 125.502L169.328 128.588C170.412 129.221 171.256 129.807 172.463 130.145C174.766 131.359 174.679 132.444 175.297 134.851C176.836 135.132 178.338 135.291 179.717 135.989L182.074 138.358C182.605 138.738 183.951 139.638 184.34 140.069C185.173 141.055 186.479 141.961 187.072 142.783C186.898 147.558 189.502 148.798 192.525 152.023C193.5 152.442 194.442 151.699 196.13 152.015L196.519 152.434C196.156 153.913 193.387 156.474 192.154 157.814C198.491 157.059 198.866 158.456 204.388 161.141C206.628 162.231 217.163 161.486 219.862 160.648C220.976 160.303 220.852 160.051 221.961 160.407L222.38 160.852C221.394 161.7 220.808 162.116 220.059 163.214C220.139 164.953 224.886 165.623 227.251 167.396C225.545 169.797 223.533 172.584 221.328 174.557L220.688 175.666C218.069 177.057 215.916 177.723 213.027 178.414C204.657 180.505 192.98 182.883 184.22 182.348C181.674 182.192 179.324 180.256 176.483 179.9L173.915 179.038C170.51 178.638 167.094 178.439 164.02 176.929C164.038 175.937 165.919 173.734 166.617 172.826C166.788 171.208 165.508 168.535 164.886 166.743C164.904 165.066 165.199 161.877 164.54 160.564L164.144 158.555L164.657 158.684C165.235 158.207 165.079 157.57 165.184 156.543L164.697 156.166C164.613 155.376 164.315 152.783 164.129 152.134C162.598 146.677 165.075 148.256 166.541 145.204Z" fill="#B6B4B2"/>
<path d="M211.379 175.131C210.35 174.928 210.212 174.999 209.215 175.345C205.468 172.067 211.379 168.416 215.53 170.634C217.072 173.425 212.827 174.253 211.554 175.132C215.643 176.311 216.13 174.132 219.262 172.814C220.575 173.15 220.263 173.215 221.328 174.557L220.688 175.665C218.069 177.057 215.916 177.723 213.027 178.414C212.252 178.091 212.54 178.257 211.947 177.583C211.838 176.785 211.798 176.427 211.55 175.656L211.379 175.131Z" fill="#A2A1A3"/>
<path d="M165.184 156.543L165.948 156.886C166.21 158.554 166.683 159.581 166.556 161.279C166.475 162.318 166.308 168.848 166.388 168.986C169.095 173.603 167.068 172.419 165.231 177.29C166.606 176.232 168.109 175.033 169.524 174.052C170.655 175.469 172.569 178.048 173.915 179.038C170.51 178.638 167.094 178.439 164.02 176.929C164.038 175.937 165.919 173.734 166.617 172.826C166.788 171.208 165.508 168.535 164.886 166.743C164.904 165.066 165.199 161.877 164.54 160.564L164.144 158.555L164.657 158.684C165.235 158.207 165.079 157.57 165.184 156.543Z" fill="#CBC9C8"/>
<path d="M172.463 130.145C174.766 131.359 174.678 132.444 175.297 134.851C176.836 135.132 178.338 135.291 179.717 135.989C178.818 137.068 178.774 137.199 177.559 137.824C173.151 138.946 172.75 136.954 172.43 133.251C170.739 131.395 169.829 132.54 168.087 131.004L168.083 130.336C169.495 130.195 171.037 130.187 172.463 130.145Z" fill="#A2A1A3"/>
<path d="M169.328 128.588C170.412 129.221 171.256 129.807 172.463 130.145C171.037 130.187 169.495 130.194 168.083 130.336L168.087 131.004C169.83 132.54 170.739 131.395 172.431 133.251C172.234 134.694 172.11 136.277 171.601 137.618L170.695 136.935C167.454 134.467 166.912 135.106 162.805 134.738L162.696 134.388C164.486 134.203 166.105 134.251 167.898 134.28C168.094 133.054 167.185 131.908 166.527 130.484C167.727 128.776 167.996 130.399 169.328 128.588Z" fill="#CBC9C8"/>
<path d="M179.717 135.989L182.074 138.358L180.772 138.631C179.873 139.734 177.672 141.566 176.392 140.18C176.559 139.095 176.912 138.758 177.56 137.824C178.775 137.199 178.818 137.068 179.717 135.989Z" fill="#CBC9C8"/>
<path d="M185.373 173.723C183.896 169.128 177.621 171.137 176.581 168.307C177.025 166.912 178.494 165.695 178.702 163.961C178.775 163.329 178.953 163.402 179.488 163.081C181.485 163.905 181.958 165.955 184.322 167.413C186.01 167.177 185.424 165.719 187.621 164.585C188.735 164.932 188.931 165.315 189.76 166.214C189.928 168.52 187.334 167.535 185.69 169.501L185.843 170.136L186.996 170.755C188.364 170.718 190.473 170.386 191.437 170.964C191.496 171.449 191.539 171.851 191.627 172.332C190.779 174.888 190.546 173.821 189.131 175.356C187.323 175.196 186.65 174.996 185.373 173.723Z" fill="#CBC9C8"/>
<path d="M186.996 170.755C188.364 170.718 190.473 170.386 191.437 170.964C191.496 171.449 191.539 171.851 191.627 172.332C189.499 174.705 185.639 174.175 185.817 171.484L186.996 170.755Z" fill="#D6D8DA"/>
<path d="M185.057 179.612C184.395 178.915 183.267 177.45 182.5 176.6L181.565 176.591C180.524 177.177 180.23 178.135 179.669 179.247L179.084 179.4C178.549 178.205 178.84 174.778 179.324 173.53C180.393 170.785 184.046 173.045 185.373 173.723C186.65 174.996 187.323 175.196 189.131 175.356L189.193 176.091C187.8 177.25 186.421 178.423 185.057 179.612Z" fill="#A2A1A3"/>
<path d="M171.426 172.45C170.339 171.254 169.873 171.008 168.407 170.314L168.174 169.646L168.513 169.114C170.841 168.653 172.536 169.827 174.66 170.898C175.173 171.824 175.119 171.82 175.111 172.832L173.296 173.972C172.158 173.806 172.412 173.675 171.426 172.45Z" fill="#CBC9C8"/>
<path d="M171.427 172.45C172.212 171.49 172.336 171.142 173.464 170.878C174.599 171.364 174.664 171.658 175.112 172.833L173.296 173.972C172.158 173.806 172.412 173.676 171.427 172.45Z" fill="#CBC9C8"/>
<path d="M194.133 162.102C194.999 162.181 195.501 162.547 196.13 163.054L196.108 163.723C194.962 164.682 195.006 164.398 193.311 164.509C192.212 165.453 192.394 165.642 191.347 165.589L191.325 164.983C191.998 163.389 192.732 163.054 194.133 162.102Z" fill="#CBC9C8"/>
<path d="M171.557 165.197C172.783 165.573 173.54 165.694 174.522 166.529C175.09 168.007 174.919 167.539 174.606 169.319C172.158 168.736 171.536 167.515 171.557 165.197Z" fill="#CBC9C8"/>
<path d="M183.547 160.414C184.922 160.789 185.035 160.9 185.624 162.098C185.315 163.544 185.53 163.018 184.46 164.17C183.318 163.437 183.162 163.397 182.39 162.325C182.525 161.018 182.347 161.506 183.547 160.414Z" fill="#CBC9C8"/>
<path d="M174.835 162.463C175.486 161.991 176.399 162.138 176.868 162.79C177.341 163.443 177.196 164.354 176.545 164.826C175.89 165.299 174.981 165.152 174.508 164.499C174.035 163.847 174.18 162.935 174.835 162.463Z" fill="#CBC9C8"/>
<path d="M221.659 167.42C223.456 167.98 224.253 167.972 224.159 169.945C222.969 169.883 222.452 169.959 221.423 169.432C221.07 168.391 221.183 168.719 221.659 167.42Z" fill="#CBC9C8"/>
<path d="M88.0293 123.804C89.4931 123.587 101.475 117.984 104.107 116.897C109.662 114.602 115.359 112.454 121.044 110.336C121.608 113.731 120.226 116.255 121.67 118.897C123.296 118.872 124.456 117.153 125.962 116.394L125.784 116.551C121.594 120.305 117.101 125.391 112.892 129.436C107.364 134.747 102.293 138.439 96.1294 142.934C93.631 144.756 91.0584 147.024 88.38 148.552C86.0191 149.897 83.4982 150.939 80.8769 151.654C75.7823 153.059 69.3301 152.053 63.3475 153.609C60.5378 153.912 58.8186 154.715 56.3595 156.03C56.114 151.008 55.6993 145.316 56.1966 140.338C56.4734 139.518 56.3475 138.245 56.3177 137.328C62.2137 135.159 66.9623 133.319 72.7143 130.711C77.5731 128.508 83.145 125.695 88.0293 123.804Z" fill="#9FB3C8"/>
<path d="M99.1944 134.247C99.8318 134.558 99.5768 134.338 99.8885 134.999C99.2065 136.009 98.1173 136.333 96.9638 136.871C96.2326 135.932 96.3061 136.283 96.1555 135.223C97.0711 134.416 97.8463 134.502 99.1944 134.247Z" fill="#B9C4D0"/>
<path d="M229.648 104.953C230.066 108.722 229.921 114.491 229.91 118.443L229.811 140.179C234.784 140.821 240.11 144.88 241.656 144.73L241.932 143.96L242.183 143.962C242.231 144.769 242.322 144.886 242.092 145.641C241.314 146.953 241.187 167.184 242.121 168.192C236.487 169.323 227.291 173.767 220.688 175.666L221.328 174.557C223.533 172.584 225.544 169.797 227.251 167.396C224.886 165.623 220.139 164.953 220.059 163.214C220.808 162.116 221.394 161.7 222.38 160.852C224.424 159.9 228.458 158.765 228.924 156.541C228.255 155.129 226.454 154.49 225.028 153.876L223.933 153.313C225.926 153.136 227.32 153.491 229.28 153.851C229.371 151.532 229.295 139.058 228.389 137.815L228.746 137.393L229.386 136.792C230.033 130.332 229.531 113.426 229.499 106.124L229.648 104.953Z" fill="#B9C4D0"/>
<path d="M229.833 142.647C231.721 142.887 233.907 142.965 233.755 145.187C232.503 145.398 231.743 145.594 230.455 145.476C229.68 144.386 229.913 144.136 229.833 142.647Z" fill="#D6D8DA"/>
<path d="M234.53 152.741C235.424 152.96 235.359 152.951 236.028 153.595C236.541 154.788 236.352 155.236 236.177 156.588C235.228 156.467 235.286 156.505 234.533 155.92C234.006 154.774 234.3 154.013 234.53 152.741Z" fill="#D6D8DA"/>
<path d="M43.5707 146.263C44.2054 148.205 44.0017 155.16 43.9795 157.525C43.9824 159.735 44.4575 168.816 43.9959 170.005C42.6074 169.357 39.6343 168.398 38.0886 167.848C30.0392 165.026 18.0035 162.772 9.64478 160.942C11.986 159.465 15.4902 159.385 17.4633 158.268C25.3727 153.79 36.0272 150.764 43.5707 146.263Z" fill="#6A819C"/>
<path d="M38.0886 167.848C41.3709 165.316 40.0693 161.95 40.4055 158.146C41.332 157.535 42.503 157.746 43.9795 157.526C43.9824 159.735 44.4575 168.816 43.9959 170.005C42.6074 169.357 39.6343 168.398 38.0886 167.848Z" fill="#8096B4"/>
<path d="M56.1966 140.338C55.6994 145.316 56.1141 151.008 56.3596 156.03C58.8187 154.715 60.5378 153.912 63.3476 153.609C62.5757 154.463 60.7285 155.24 59.8198 155.474C53.3261 157.15 54.4465 159.96 52.6281 165.362C52.3232 166.268 49.026 169.422 47.8838 170.435C50.1533 171.342 51.5171 171.452 53.6979 172.134C55.5076 172.3 56.6361 173.233 58.2443 172.778C58.1562 170.09 52.8278 166.882 55.7335 164.284C58.0187 164.442 66.8845 175.5 69.404 177.054C72.1672 178.759 79.3404 179.316 82.4844 180.02L82.1127 180.247C78.7707 179.791 74.1807 179.225 71.0715 178.211C64.7561 176.153 59.8405 174.092 53.2897 172.409C50.7961 171.905 46.1737 171.004 43.9958 170.005C44.4574 168.816 43.9823 159.735 43.9794 157.525C44.0016 155.16 44.2053 148.205 43.5706 146.263L44.2635 145.688C47.918 144.017 52.5222 141.741 56.1966 140.338Z" fill="#B9C4D0"/>
<path d="M166.541 145.204C165.737 145.063 165.533 144.854 164.871 144.396L164.638 144.234C162.903 144.489 160.837 147.547 159.182 147.027C160.204 145.474 162.529 144.372 163.991 143.291C163.976 139.914 157.705 140.375 156.184 137.327C156.617 135.923 158.211 135.011 159.477 134.028C158.513 133.968 156.483 133.792 155.755 133.513C147.618 130.38 154.093 127.531 157.443 124.354C157.592 124.209 157.738 121.403 157.938 120.667C160.757 119.566 164.613 123.602 166.439 125.502C165.039 125.664 165.057 125.437 164.107 126.166C164.071 127.875 164.457 127.671 166.141 128.037C166.301 129.74 159.411 133.722 158.549 136.899C159.273 139.134 160.455 138.599 162.117 139.676C163.292 140.435 163.547 141.652 165.06 141.909C166.246 141.113 166.545 141.023 167.261 139.845C167.028 138.176 165.759 138.755 165.937 137.922C167.174 138.394 167.239 138.526 168.229 139.46C168.436 141.438 166.272 140.856 165.17 142.769C165.453 144.278 165.424 143.863 166.541 145.204Z" fill="#D6D8DA"/>
<path d="M184.34 140.069L184.846 140.255C188.094 141.462 189.477 143.273 192.274 145.21C194.085 146.467 195.446 146.454 197.065 148.138C197.116 149.41 197.363 153.025 197.068 154.035L195.493 155.194C195.701 156.691 197.541 157.285 198.822 156.835C198.844 155.619 198.716 154.666 199.298 153.637L199.997 153.385L200.31 153.659C197.33 156.982 201.576 158.75 204.235 160.017C207.701 161.666 225.581 160.017 227.818 157.451C227.607 155.587 226.268 155.518 225.028 153.876C226.454 154.489 228.254 155.129 228.924 156.541C228.458 158.765 224.424 159.9 222.379 160.852L221.961 160.406C220.852 160.051 220.975 160.303 219.862 160.648C217.163 161.486 206.628 162.231 204.387 161.141C198.865 158.456 198.491 157.059 192.154 157.814C193.387 156.474 196.155 153.913 196.519 152.433L196.13 152.015C194.442 151.699 193.5 152.442 192.525 152.022C189.502 148.798 186.897 147.558 187.072 142.783C186.479 141.96 185.173 141.055 184.34 140.069Z" fill="#D6D8DA"/>
<path d="M187.072 142.783C189.004 147.813 192.361 144.403 192.525 152.022C189.502 148.798 186.897 147.558 187.072 142.783Z" fill="#CBC9C8"/>
<path d="M159.415 176.741C157.76 176.359 155.832 176.096 154.566 175.029C153.198 171.738 161.328 169.083 163.816 168.005L163.795 167.564C162.932 166.559 162.907 166.44 161.678 166.173C160.925 166.493 161.03 166.496 160.237 166.642L159.935 166.006C161.827 164.959 163.384 165.19 164.886 166.743C165.508 168.535 166.788 171.208 166.617 172.826C165.919 173.734 164.038 175.937 164.02 176.929C163.573 177.107 160.382 176.774 159.415 176.741Z" fill="#D6D8DA"/>
<path d="M159.415 176.741C160.382 176.774 163.573 177.107 164.02 176.929C167.094 178.439 170.51 178.638 173.915 179.038L176.483 179.9C172.485 180.722 166.719 179.456 162.467 179.523C159.713 179.567 158.585 180.471 156.33 180.534L155.999 179.964V180.099C156.883 178.927 158.473 179.073 160.288 177.973L160.321 177.447L159.415 176.741Z" fill="#EDEAE9"/>
<path d="M188.404 134.833C191.274 137.985 193.78 141.596 197.771 142.529C199.317 144.489 196.956 143.771 199.102 145.973C193.875 144.814 188.778 140.416 188.404 134.833Z" fill="#D6D8DA"/>
<path d="M164.54 160.564C163.009 161.775 162.525 161.408 160.819 160.856C159.535 161.166 160.048 160.842 159.215 161.844C159.262 162.877 159.418 163.465 158.84 164.303C157.316 164.988 154.911 164.811 153.307 164.476L152.932 163.888C153.965 161.788 156.21 165.48 157.741 163.553C159.367 161.508 160.208 157.382 162.641 156.53C163.802 157.212 163.46 157.074 164.144 158.555L164.54 160.564Z" fill="#D6D8DA"/>
<path d="M131.332 105.121C133.605 104.564 133.714 103.702 133.54 101.234C134.558 101.975 134.74 102.01 135.14 103.136C133.773 107.391 124.984 108.538 122.099 110.808C121.426 113.752 122.285 116.227 121.67 118.897C120.226 116.255 121.608 113.731 121.044 110.336C124.751 108.889 127.887 107.064 131.332 105.121Z" fill="#B9C4D0"/>
<path d="M151.579 101.439C150.928 101.197 150.499 100.574 150.502 99.8802C150.51 99.1864 150.95 98.5701 151.605 98.3387C152.256 98.1077 152.987 98.3107 153.427 98.847C153.9 99.4229 153.926 100.244 153.496 100.851C153.063 101.457 152.278 101.699 151.579 101.439Z" fill="#D6D8DA"/>
<path d="M134.602 195.085C144.464 194.077 156.094 194.709 166.406 193.804C179.895 192.62 192.656 190.837 206.141 189.661C186.785 201.378 163.092 211.841 142.787 222.132C140.164 221.395 138.833 220.87 136.326 219.778C134.107 218.854 132.689 218.273 130.633 217.069C123.231 214.194 116.912 209.161 110.881 206.765C111.15 205.917 111.746 205.477 112.394 204.839C114.94 203.796 118.211 201.951 120.71 201.543C125.908 200.694 130.506 204.034 133.627 197.885C133.958 197.228 134.326 195.851 134.602 195.085Z" fill="#C1C6CB"/>
<path d="M130.633 217.069C132.136 216.158 133.201 215.293 134.918 215.183C136.985 215.994 136.715 217.798 136.326 219.778C134.107 218.854 132.689 218.273 130.633 217.069Z" fill="#D6D8DA"/>
<path d="M138.836 209.92C140.346 210.004 141.484 210.121 142.299 211.452C141.819 212.644 141.866 212.309 140.466 213.131C139.917 213.331 139.462 213.353 138.876 213.435C137.654 212.916 138.08 213.337 137.53 212.156C137.821 210.566 137.527 211.166 138.836 209.92Z" fill="#D6D8DA"/>
<path d="M80.4434 190.591C86.9999 191.114 104.864 192.043 110.106 193.535C107.027 193.718 104.229 194.032 101.173 194.383C101.604 197.705 101.516 197.798 102.714 201.012L100.671 201.741C96.4398 200.002 84.2724 193.123 80.4434 190.591Z" fill="#C6C6CB"/>
<path d="M100.671 201.741L102.714 201.012C106.407 203.504 107.945 204.403 112.394 204.839C111.746 205.477 111.15 205.917 110.881 206.765C106.478 205.905 102.784 202.159 100.671 201.741Z" fill="#EDEAE9"/>
<path d="M139.077 184.747C139.64 184.701 140.201 184.662 140.761 184.631C142.329 184.553 142.278 184.729 143.307 185.657L143.238 186.297C141.958 186.96 142.249 186.72 140.499 186.476C138.982 186.539 137.101 186.831 136.003 185.85C136.898 185.006 137.832 184.987 139.077 184.747Z" fill="#EDEAE9"/>
<path d="M123.704 194.665C125.064 194.5 125.388 194.488 126.748 194.632L126.912 194.929C125.73 195.687 124.442 195.524 122.976 195.551C121.765 195.599 119.818 195.819 118.782 195.377C120.291 194.741 122.03 194.773 123.704 194.665Z" fill="#D6D8DA"/>
</svg>
